<svg width="816" height="134" viewBox="0 0 816 134" fill="none" xmlns="http://www.w3.org/2000/svg">
<path d="M344 71.125L266.588 1H1V104.125L39.1897 133H344V71.125Z" stroke="white" stroke-width="0.5" stroke-dasharray="1 1"/>
<path d="M805.167 99.5C805.167 100.236 805.764 100.833 806.5 100.833C807.236 100.833 807.833 100.236 807.833 99.5C807.833 98.7636 807.236 98.1667 806.5 98.1667C805.764 98.1667 805.167 98.7636 805.167 99.5ZM344 99.5V99.75H345.006V99.5V99.25H344V99.5ZM347.019 99.5V99.75H349.031V99.5V99.25H347.019V99.5ZM351.044 99.5V99.75H353.056V99.5V99.25H351.044V99.5ZM355.069 99.5V99.75H357.081V99.5V99.25H355.069V99.5ZM359.094 99.5V99.75H361.106V99.5V99.25H359.094V99.5ZM363.119 99.5V99.75H365.131V99.5V99.25H363.119V99.5ZM367.144 99.5V99.75H369.156V99.5V99.25H367.144V99.5ZM371.169 99.5V99.75H373.181V99.5V99.25H371.169V99.5ZM375.194 99.5V99.75H377.206V99.5V99.25H375.194V99.5ZM379.219 99.5V99.75H381.231V99.5V99.25H379.219V99.5ZM383.244 99.5V99.75H385.256V99.5V99.25H383.244V99.5ZM387.269 99.5V99.75H389.281V99.5V99.25H387.269V99.5ZM391.294 99.5V99.75H393.306V99.5V99.25H391.294V99.5ZM395.319 99.5V99.75H397.331V99.5V99.25H395.319V99.5ZM399.344 99.5V99.75H401.356V99.5V99.25H399.344V99.5ZM403.369 99.5V99.75H405.381V99.5V99.25H403.369V99.5ZM407.394 99.5V99.75H409.406V99.5V99.25H407.394V99.5ZM411.419 99.5V99.75H413.431V99.5V99.25H411.419V99.5ZM415.444 99.5V99.75H417.456V99.5V99.25H415.444V99.5ZM419.469 99.5V99.75H421.481V99.5V99.25H419.469V99.5ZM423.494 99.5V99.75H425.506V99.5V99.25H423.494V99.5ZM427.519 99.5V99.75H429.531V99.5V99.25H427.519V99.5ZM431.544 99.5V99.75H433.556V99.5V99.25H431.544V99.5ZM435.569 99.5V99.75H437.581V99.5V99.25H435.569V99.5ZM439.594 99.5V99.75H441.606V99.5V99.25H439.594V99.5ZM443.619 99.5V99.75H445.631V99.5V99.25H443.619V99.5ZM447.644 99.5V99.75H449.656V99.5V99.25H447.644V99.5ZM451.669 99.5V99.75H453.681V99.5V99.25H451.669V99.5ZM455.694 99.5V99.75H457.706V99.5V99.25H455.694V99.5ZM459.719 99.5V99.75H461.731V99.5V99.25H459.719V99.5ZM463.744 99.5V99.75H465.756V99.5V99.25H463.744V99.5ZM467.769 99.5V99.75H469.781V99.5V99.25H467.769V99.5ZM471.794 99.5V99.75H473.806V99.5V99.25H471.794V99.5ZM475.819 99.5V99.75H477.831V99.5V99.25H475.819V99.5ZM479.844 99.5V99.75H481.856V99.5V99.25H479.844V99.5ZM483.869 99.5V99.75H485.881V99.5V99.25H483.869V99.5ZM487.894 99.5V99.75H489.906V99.5V99.25H487.894V99.5ZM491.919 99.5V99.75H493.931V99.5V99.25H491.919V99.5ZM495.944 99.5V99.75H497.956V99.5V99.25H495.944V99.5ZM499.969 99.5V99.75H501.981V99.5V99.25H499.969V99.5ZM503.994 99.5V99.75H505V99.5V99.25H503.994V99.5ZM505 99.5V99.75H506.005V99.5V99.25H505V99.5ZM508.015 99.5V99.75H510.025V99.5V99.25H508.015V99.5ZM512.035 99.5V99.75H514.045V99.5V99.25H512.035V99.5ZM516.055 99.5V99.75H518.065V99.5V99.25H516.055V99.5ZM520.075 99.5V99.75H522.085V99.5V99.25H520.075V99.5ZM524.095 99.5V99.75H526.105V99.5V99.25H524.095V99.5ZM528.115 99.5V99.75H530.125V99.5V99.25H528.115V99.5ZM532.135 99.5V99.75H534.145V99.5V99.25H532.135V99.5ZM536.155 99.5V99.75H538.165V99.5V99.25H536.155V99.5ZM540.175 99.5V99.75H542.185V99.5V99.25H540.175V99.5ZM544.195 99.5V99.75H546.205V99.5V99.25H544.195V99.5ZM548.215 99.5V99.75H550.225V99.5V99.25H548.215V99.5ZM552.235 99.5V99.75H554.245V99.5V99.25H552.235V99.5ZM556.255 99.5V99.75H558.265V99.5V99.25H556.255V99.5ZM560.275 99.5V99.75H562.285V99.5V99.25H560.275V99.5ZM564.295 99.5V99.75H566.305V99.5V99.25H564.295V99.5ZM568.315 99.5V99.75H570.325V99.5V99.25H568.315V99.5ZM572.335 99.5V99.75H574.345V99.5V99.25H572.335V99.5ZM576.355 99.5V99.75H578.365V99.5V99.25H576.355V99.5ZM580.375 99.5V99.75H582.385V99.5V99.25H580.375V99.5ZM584.395 99.5V99.75H586.405V99.5V99.25H584.395V99.5ZM588.415 99.5V99.75H590.425V99.5V99.25H588.415V99.5ZM592.435 99.5V99.75H594.445V99.5V99.25H592.435V99.5ZM596.455 99.5V99.75H598.465V99.5V99.25H596.455V99.5ZM600.475 99.5V99.75H602.485V99.5V99.25H600.475V99.5ZM604.495 99.5V99.75H606.505V99.5V99.25H604.495V99.5ZM608.515 99.5V99.75H610.525V99.5V99.25H608.515V99.5ZM612.535 99.5V99.75H614.545V99.5V99.25H612.535V99.5ZM616.555 99.5V99.75H618.565V99.5V99.25H616.555V99.5ZM620.575 99.5V99.75H622.585V99.5V99.25H620.575V99.5ZM624.595 99.5V99.75H626.605V99.5V99.25H624.595V99.5ZM628.615 99.5V99.75H630.625V99.5V99.25H628.615V99.5ZM632.635 99.5V99.75H634.645V99.5V99.25H632.635V99.5ZM636.655 99.5V99.75H638.665V99.5V99.25H636.655V99.5ZM640.675 99.5V99.75H642.685V99.5V99.25H640.675V99.5ZM644.695 99.5V99.75H646.705V99.5V99.25H644.695V99.5ZM648.715 99.5V99.75H650.725V99.5V99.25H648.715V99.5ZM652.735 99.5V99.75H654.745V99.5V99.25H652.735V99.5ZM656.755 99.5V99.75H658.765V99.5V99.25H656.755V99.5ZM660.775 99.5V99.75H662.785V99.5V99.25H660.775V99.5ZM664.795 99.5V99.75H666.805V99.5V99.25H664.795V99.5ZM668.815 99.5V99.75H670.825V99.5V99.25H668.815V99.5ZM672.835 99.5V99.75H674.845V99.5V99.25H672.835V99.5ZM676.855 99.5V99.75H678.865V99.5V99.25H676.855V99.5ZM680.875 99.5V99.75H682.885V99.5V99.25H680.875V99.5ZM684.895 99.5V99.75H686.905V99.5V99.25H684.895V99.5ZM688.915 99.5V99.75H690.925V99.5V99.25H688.915V99.5ZM692.935 99.5V99.75H694.945V99.5V99.25H692.935V99.5ZM696.955 99.5V99.75H698.965V99.5V99.25H696.955V99.5ZM700.975 99.5V99.75H702.985V99.5V99.25H700.975V99.5ZM704.995 99.5V99.75H707.005V99.5V99.25H704.995V99.5ZM709.015 99.5V99.75H711.025V99.5V99.25H709.015V99.5ZM713.035 99.5V99.75H715.045V99.5V99.25H713.035V99.5ZM717.055 99.5V99.75H719.065V99.5V99.25H717.055V99.5ZM721.075 99.5V99.75H723.085V99.5V99.25H721.075V99.5ZM725.095 99.5V99.75H727.105V99.5V99.25H725.095V99.5ZM729.115 99.5V99.75H731.125V99.5V99.25H729.115V99.5ZM733.135 99.5V99.75H735.145V99.5V99.25H733.135V99.5ZM737.155 99.5V99.75H739.165V99.5V99.25H737.155V99.5ZM741.175 99.5V99.75H743.185V99.5V99.25H741.175V99.5ZM745.195 99.5V99.75H747.205V99.5V99.25H745.195V99.5ZM749.215 99.5V99.75H751.225V99.5V99.25H749.215V99.5ZM753.235 99.5V99.75H755.245V99.5V99.25H753.235V99.5ZM757.255 99.5V99.75H759.265V99.5V99.25H757.255V99.5ZM761.275 99.5V99.75H763.285V99.5V99.25H761.275V99.5ZM765.295 99.5V99.75H767.305V99.5V99.25H765.295V99.5ZM769.315 99.5V99.75H771.325V99.5V99.25H769.315V99.5ZM773.335 99.5V99.75H775.345V99.5V99.25H773.335V99.5ZM777.355 99.5V99.75H779.365V99.5V99.25H777.355V99.5ZM781.375 99.5V99.75H783.385V99.5V99.25H781.375V99.5ZM785.395 99.5V99.75H787.405V99.5V99.25H785.395V99.5ZM789.415 99.5V99.75H791.425V99.5V99.25H789.415V99.5ZM793.435 99.5V99.75H795.445V99.5V99.25H793.435V99.5ZM797.455 99.5V99.75H799.465V99.5V99.25H797.455V99.5ZM801.475 99.5V99.75H803.485V99.5V99.25H801.475V99.5ZM805.495 99.5V99.75H806.5V99.5V99.25H805.495V99.5Z" fill="white"/>
<path d="M807.003 100.46C808.112 100.46 809.012 99.5611 809.012 98.452C809.012 97.3429 808.112 96.4438 807.003 96.4438C805.893 96.4438 804.994 97.3429 804.994 98.452C804.994 99.5611 805.893 100.46 807.003 100.46Z" fill="white"/>
<path d="M807.001 92.9492C805.913 92.9492 804.849 93.272 803.943 93.8766C803.038 94.4812 802.333 95.3406 801.916 96.3461C801.499 97.3516 801.39 98.458 801.603 99.5254C801.815 100.593 802.339 101.573 803.109 102.343C803.879 103.112 804.86 103.636 805.928 103.849C806.995 104.061 808.102 103.952 809.108 103.536C810.114 103.119 810.973 102.414 811.578 101.509C812.183 100.604 812.506 99.5402 812.506 98.4519C812.504 96.9931 811.923 95.5946 810.892 94.563C809.86 93.5315 808.461 92.9511 807.001 92.9492ZM807.001 103.429C806.017 103.429 805.054 103.137 804.235 102.59C803.417 102.043 802.779 101.266 802.402 100.357C802.025 99.4471 801.926 98.4463 802.118 97.4808C802.31 96.5154 802.785 95.6285 803.481 94.9324C804.177 94.2364 805.064 93.7624 806.03 93.5703C806.996 93.3783 807.997 93.4768 808.907 93.8535C809.817 94.2303 810.594 94.8682 811.141 95.6867C811.688 96.5052 811.98 97.4675 811.98 98.4519C811.979 99.7716 811.454 101.037 810.521 101.97C809.587 102.903 808.322 103.428 807.001 103.429Z" fill="white"/>
<path d="M807 89.4546C805.22 89.4546 803.48 89.9823 802 90.9709C800.52 91.9595 799.366 93.3646 798.685 95.0086C798.004 96.6526 797.826 98.4616 798.173 100.207C798.52 101.952 799.377 103.555 800.636 104.814C801.895 106.072 803.498 106.929 805.244 107.276C806.99 107.623 808.8 107.445 810.444 106.764C812.089 106.083 813.494 104.93 814.483 103.45C815.472 101.971 816 100.231 816 98.4517C816 96.0655 815.052 93.7771 813.364 92.0898C811.676 90.4025 809.387 89.4546 807 89.4546ZM807 106.923C805.323 106.926 803.683 106.432 802.288 105.503C800.892 104.573 799.804 103.251 799.16 101.704C798.517 100.156 798.347 98.4521 798.672 96.8078C798.998 95.1635 799.804 93.6526 800.988 92.4664C802.173 91.2802 803.683 90.4719 805.327 90.1439C806.971 89.8158 808.676 89.9827 810.225 90.6235C811.775 91.2643 813.099 92.3501 814.031 93.7436C814.963 95.1371 815.46 96.7755 815.46 98.4517C815.457 100.695 814.565 102.846 812.98 104.434C811.394 106.022 809.244 106.917 807 106.923Z" fill="white"/>
</svg>
