<svg width="946" height="208" viewBox="0 0 946 208" fill="none" xmlns="http://www.w3.org/2000/svg">
<path d="M544 107.578L651.5 171L945 171L945 62.7032L868.01 1.00004L544 1L544 40.8437L544 107.578Z" stroke="white" stroke-width="0.5" stroke-dasharray="1 1"/>
<path d="M222 64.4941V64.2441H221.947L221.898 64.2658L222 64.4941ZM0.681534 163.087L2.58735 163.818L3.31847 161.913L1.41265 161.182L0.681534 163.087ZM2 162.5L2.10173 162.728L3.0184 162.32L2.91667 162.092L2.81493 161.863L1.89827 162.272L2 162.5ZM4.75 161.275L4.85173 161.503L6.68507 160.687L6.58333 160.458L6.4816 160.23L4.64827 161.047L4.75 161.275ZM8.41667 159.641L8.5184 159.87L10.3517 159.053L10.25 158.825L10.1483 158.596L8.31493 159.413L8.41667 159.641ZM12.0833 158.008L12.1851 158.236L14.0184 157.42L13.9167 157.191L13.8149 156.963L11.9816 157.78L12.0833 158.008ZM15.75 156.375L15.8517 156.603L17.6851 155.786L17.5833 155.558L17.4816 155.33L15.6483 156.146L15.75 156.375ZM19.4167 154.741L19.5184 154.97L21.3517 154.153L21.25 153.924L21.1483 153.696L19.3149 154.513L19.4167 154.741ZM23.0833 153.108L23.1851 153.336L25.0184 152.519L24.9167 152.291L24.8149 152.063L22.9816 152.879L23.0833 153.108ZM26.75 151.474L26.8517 151.703L28.6851 150.886L28.5833 150.658L28.4816 150.429L26.6483 151.246L26.75 151.474ZM30.4167 149.841L30.5184 150.069L32.3517 149.253L32.25 149.024L32.1483 148.796L30.3149 149.613L30.4167 149.841ZM34.0833 148.207L34.1851 148.436L36.0184 147.619L35.9167 147.391L35.8149 147.162L33.9816 147.979L34.0833 148.207ZM37.75 146.574L37.8517 146.802L39.6851 145.986L39.5833 145.757L39.4816 145.529L37.6483 146.346L37.75 146.574ZM41.4167 144.941L41.5184 145.169L43.3517 144.352L43.25 144.124L43.1483 143.896L41.3149 144.712L41.4167 144.941ZM45.0833 143.307L45.1851 143.536L47.0184 142.719L46.9167 142.49L46.8149 142.262L44.9816 143.079L45.0833 143.307ZM48.75 141.674L48.8517 141.902L50.6851 141.085L50.5833 140.857L50.4816 140.629L48.6483 141.445L48.75 141.674ZM52.4167 140.04L52.5184 140.269L54.3517 139.452L54.25 139.224L54.1483 138.995L52.3149 139.812L52.4167 140.04ZM56.0833 138.407L56.1851 138.635L58.0184 137.819L57.9167 137.59L57.8149 137.362L55.9816 138.179L56.0833 138.407ZM59.75 136.773L59.8517 137.002L61.6851 136.185L61.5833 135.957L61.4816 135.728L59.6483 136.545L59.75 136.773ZM63.4167 135.14L63.5184 135.368L65.3517 134.552L65.25 134.323L65.1483 134.095L63.3149 134.912L63.4167 135.14ZM67.0833 133.507L67.1851 133.735L69.0184 132.918L68.9167 132.69L68.8149 132.462L66.9816 133.278L67.0833 133.507ZM70.75 131.873L70.8517 132.102L72.6851 131.285L72.5833 131.056L72.4816 130.828L70.6483 131.645L70.75 131.873ZM74.4167 130.24L74.5184 130.468L76.3517 129.651L76.25 129.423L76.1483 129.195L74.3149 130.011L74.4167 130.24ZM78.0833 128.606L78.1851 128.835L80.0184 128.018L79.9167 127.79L79.8149 127.561L77.9816 128.378L78.0833 128.606ZM81.75 126.973L81.8517 127.201L83.6851 126.385L83.5833 126.156L83.4816 125.928L81.6483 126.745L81.75 126.973ZM85.4167 125.339L85.5184 125.568L87.3517 124.751L87.25 124.523L87.1483 124.294L85.3149 125.111L85.4167 125.339ZM89.0833 123.706L89.185 123.934L91.0184 123.118L90.9166 122.889L90.8149 122.661L88.9816 123.478L89.0833 123.706ZM92.75 122.073L92.8517 122.301L94.685 121.484L94.5833 121.256L94.4816 121.028L92.6482 121.844L92.75 122.073ZM96.4166 120.439L96.5184 120.668L98.3517 119.851L98.25 119.622L98.1482 119.394L96.3149 120.211L96.4166 120.439ZM100.083 118.806L100.185 119.034L102.018 118.217L101.917 117.989L101.815 117.761L99.9816 118.577L100.083 118.806ZM103.75 117.172L103.852 117.401L105.685 116.584L105.583 116.356L105.482 116.127L103.648 116.944L103.75 117.172ZM107.417 115.539L107.518 115.767L109.352 114.951L109.25 114.722L109.148 114.494L107.315 115.311L107.417 115.539ZM111.083 113.905L111.185 114.134L113.018 113.317L112.917 113.089L112.815 112.86L110.982 113.677L111.083 113.905ZM114.75 112.272L114.852 112.5L116.685 111.684L116.583 111.455L116.482 111.227L114.648 112.044L114.75 112.272ZM118.417 110.639L118.518 110.867L120.352 110.05L120.25 109.822L120.148 109.594L118.315 110.41L118.417 110.639ZM122.083 109.005L122.185 109.234L124.018 108.417L123.917 108.188L123.815 107.96L121.982 108.777L122.083 109.005ZM125.75 107.372L125.852 107.6L127.685 106.783L127.583 106.555L127.482 106.327L125.648 107.143L125.75 107.372ZM129.417 105.738L129.518 105.967L131.352 105.15L131.25 104.922L131.148 104.693L129.315 105.51L129.417 105.738ZM133.083 104.105L133.185 104.333L135.018 103.517L134.917 103.288L134.815 103.06L132.982 103.877L133.083 104.105ZM136.75 102.471L136.852 102.7L138.685 101.883L138.583 101.655L138.482 101.426L136.648 102.243L136.75 102.471ZM140.417 100.838L140.518 101.066L142.352 100.25L142.25 100.021L142.148 99.7929L140.315 100.61L140.417 100.838ZM144.083 99.2046L144.185 99.433L146.018 98.6162L145.917 98.3879L145.815 98.1595L143.982 98.9762L144.083 99.2046ZM147.75 97.5712L147.852 97.7995L149.685 96.9828L149.583 96.7544L149.482 96.5261L147.648 97.3428L147.75 97.5712ZM151.417 95.9377L151.518 96.1661L153.352 95.3494L153.25 95.121L153.148 94.8927L151.315 95.7094L151.417 95.9377ZM155.083 94.3043L155.185 94.5327L157.018 93.716L156.917 93.4876L156.815 93.2592L154.981 94.0759L155.083 94.3043ZM158.75 92.6709L158.852 92.8992L160.685 92.0825L160.583 91.8542L160.481 91.6258L158.648 92.4425L158.75 92.6709ZM162.417 91.0374L162.518 91.2658L164.352 90.4491L164.25 90.2207L164.148 89.9924L162.315 90.8091L162.417 91.0374ZM166.083 89.404L166.185 89.6324L168.018 88.8157L167.917 88.5873L167.815 88.3589L165.981 89.1756L166.083 89.404ZM169.75 87.7706L169.852 87.999L171.685 87.1822L171.583 86.9539L171.481 86.7255L169.648 87.5422L169.75 87.7706ZM173.417 86.1372L173.518 86.3655L175.352 85.5488L175.25 85.3204L175.148 85.0921L173.315 85.9088L173.417 86.1372ZM177.083 84.5037L177.185 84.7321L179.018 83.9154L178.917 83.687L178.815 83.4586L176.981 84.2754L177.083 84.5037ZM180.75 82.8703L180.852 83.0987L182.685 82.2819L182.583 82.0536L182.481 81.8252L180.648 82.6419L180.75 82.8703ZM184.417 81.2369L184.518 81.4652L186.352 80.6485L186.25 80.4202L186.148 80.1918L184.315 81.0085L184.417 81.2369ZM188.083 79.6034L188.185 79.8318L190.018 79.0151L189.917 78.7867L189.815 78.5584L187.981 79.3751L188.083 79.6034ZM191.75 77.97L191.852 78.1984L193.685 77.3817L193.583 77.1533L193.481 76.9249L191.648 77.7416L191.75 77.97ZM195.417 76.3366L195.518 76.5649L197.352 75.7482L197.25 75.5199L197.148 75.2915L195.315 76.1082L195.417 76.3366ZM199.083 74.7032L199.185 74.9315L201.018 74.1148L200.917 73.8864L200.815 73.6581L198.981 74.4748L199.083 74.7032ZM202.75 73.0697L202.852 73.2981L204.685 72.4814L204.583 72.253L204.481 72.0246L202.648 72.8414L202.75 73.0697ZM206.417 71.4363L206.518 71.6647L208.352 70.8479L208.25 70.6196L208.148 70.3912L206.315 71.2079L206.417 71.4363ZM210.083 69.8029L210.185 70.0312L212.018 69.2145L211.916 68.9862L211.815 68.7578L209.981 69.5745L210.083 69.8029ZM213.75 68.1694L213.852 68.3978L215.685 67.5811L215.583 67.3527L215.481 67.1244L213.648 67.9411L213.75 68.1694ZM217.416 66.536L217.518 66.7644L219.352 65.9477L219.25 65.7193L219.148 65.4909L217.315 66.3076L217.416 66.536ZM221.083 64.9026L221.185 65.1309L222.102 64.7225L222 64.4941L221.898 64.2658L220.981 64.6742L221.083 64.9026ZM222 64.4941V64.7441H223.005V64.4941V64.2441H222V64.4941ZM225.014 64.4941V64.7441H227.023V64.4941V64.2441H225.014V64.4941ZM229.033 64.4941V64.7441H231.042V64.4941V64.2441H229.033V64.4941ZM233.052 64.4941V64.7441H235.061V64.4941V64.2441H233.052V64.4941ZM237.07 64.4941V64.7441H239.08V64.4941V64.2441H237.07V64.4941ZM241.089 64.4941V64.7441H243.098V64.4941V64.2441H241.089V64.4941ZM245.108 64.4941V64.7441H247.117V64.4941V64.2441H245.108V64.4941ZM249.127 64.4941V64.7441H251.136V64.4941V64.2441H249.127V64.4941ZM253.145 64.4941V64.7441H255.155V64.4941V64.2441H253.145V64.4941ZM257.164 64.4941V64.7441H259.173V64.4941V64.2441H257.164V64.4941ZM261.183 64.4941V64.7441H263.192V64.4941V64.2441H261.183V64.4941ZM265.202 64.4941V64.7441H267.211V64.4941V64.2441H265.202V64.4941ZM269.22 64.4941V64.7441H271.23V64.4941V64.2441H269.22V64.4941ZM273.239 64.4941V64.7441H275.248V64.4941V64.2441H273.239V64.4941ZM277.258 64.4941V64.7441H279.267V64.4941V64.2441H277.258V64.4941ZM281.277 64.4941V64.7441H283.286V64.4941V64.2441H281.277V64.4941ZM285.295 64.4941V64.7441H287.305V64.4941V64.2441H285.295V64.4941ZM289.314 64.4941V64.7441H291.323V64.4941V64.2441H289.314V64.4941ZM293.333 64.4941V64.7441H295.342V64.4941V64.2441H293.333V64.4941ZM297.352 64.4941V64.7441H299.361V64.4941V64.2441H297.352V64.4941ZM301.37 64.4941V64.7441H303.38V64.4941V64.2441H301.37V64.4941ZM305.389 64.4941V64.7441H307.398V64.4941V64.2441H305.389V64.4941ZM309.408 64.4941V64.7441H311.417V64.4941V64.2441H309.408V64.4941ZM313.427 64.4941V64.7441H315.436V64.4941V64.2441H313.427V64.4941ZM317.445 64.4941V64.7441H319.455V64.4941V64.2441H317.445V64.4941ZM321.464 64.4941V64.7441H323.473V64.4941V64.2441H321.464V64.4941ZM325.483 64.4941V64.7441H327.492V64.4941V64.2441H325.483V64.4941ZM329.502 64.4941V64.7441H331.511V64.4941V64.2441H329.502V64.4941ZM333.52 64.4941V64.7441H335.53V64.4941V64.2441H333.52V64.4941ZM337.539 64.4941V64.7441H339.548V64.4941V64.2441H337.539V64.4941ZM341.558 64.4941V64.7441H343.567V64.4941V64.2441H341.558V64.4941ZM345.577 64.4941V64.7441H347.586V64.4941V64.2441H345.577V64.4941ZM349.595 64.4941V64.7441H351.605V64.4941V64.2441H349.595V64.4941ZM353.614 64.4941V64.7441H355.623V64.4941V64.2441H353.614V64.4941ZM357.633 64.4941V64.7441H359.642V64.4941V64.2441H357.633V64.4941ZM361.652 64.4941V64.7441H363.661V64.4941V64.2441H361.652V64.4941ZM365.67 64.4941V64.7441H367.68V64.4941V64.2441H365.67V64.4941ZM369.689 64.4941V64.7441H371.698V64.4941V64.2441H369.689V64.4941ZM373.708 64.4941V64.7441H375.717V64.4941V64.2441H373.708V64.4941ZM377.727 64.4941V64.7441H379.736V64.4941V64.2441H377.727V64.4941ZM381.745 64.4941V64.7441H383.755V64.4941V64.2441H381.745V64.4941ZM385.764 64.4941V64.7441H387.773V64.4941V64.2441H385.764V64.4941ZM389.783 64.4941V64.7441H391.792V64.4941V64.2441H389.783V64.4941ZM393.801 64.4941V64.7441H395.811V64.4941V64.2441H393.801V64.4941ZM397.82 64.4941V64.7441H399.83V64.4941V64.2441H397.82V64.4941ZM401.839 64.4941V64.7441H403.848V64.4941V64.2441H401.839V64.4941ZM405.858 64.4941V64.7441H407.867V64.4941V64.2441H405.858V64.4941ZM409.876 64.4941V64.7441H411.886V64.4941V64.2441H409.876V64.4941ZM413.895 64.4941V64.7441H415.905V64.4941V64.2441H413.895V64.4941ZM417.914 64.4941V64.7441H419.923V64.4941V64.2441H417.914V64.4941ZM421.933 64.4941V64.7441H423.942V64.4941V64.2441H421.933V64.4941ZM425.951 64.4941V64.7441H427.961V64.4941V64.2441H425.951V64.4941ZM429.97 64.4941V64.7441H431.98V64.4941V64.2441H429.97V64.4941ZM433.989 64.4941V64.7441H435.998V64.4941V64.2441H433.989V64.4941ZM438.008 64.4941V64.7441H440.017V64.4941V64.2441H438.008V64.4941ZM442.026 64.4941V64.7441H444.036V64.4941V64.2441H442.026V64.4941ZM446.045 64.4941V64.7441H448.054V64.4941V64.2441H446.045V64.4941ZM450.064 64.4941V64.7441H452.073V64.4941V64.2441H450.064V64.4941ZM454.083 64.4941V64.7441H456.092V64.4941V64.2441H454.083V64.4941ZM458.101 64.4941V64.7441H460.111V64.4941V64.2441H458.101V64.4941ZM462.12 64.4941V64.7441H464.129V64.4941V64.2441H462.12V64.4941ZM466.139 64.4941V64.7441H468.148V64.4941V64.2441H466.139V64.4941ZM470.158 64.4941V64.7441H472.167V64.4941V64.2441H470.158V64.4941ZM474.176 64.4941V64.7441H476.186V64.4941V64.2441H474.176V64.4941ZM478.195 64.4941V64.7441H480.204V64.4941V64.2441H478.195V64.4941ZM482.214 64.4941V64.7441H484.223V64.4941V64.2441H482.214V64.4941ZM486.232 64.4941V64.7441H488.242V64.4941V64.2441H486.232V64.4941ZM490.251 64.4941V64.7441H492.261V64.4941V64.2441H490.251V64.4941ZM494.27 64.4941V64.7441H496.279V64.4941V64.2441H494.27V64.4941ZM498.289 64.4941V64.7441H500.298V64.4941V64.2441H498.289V64.4941ZM502.307 64.4941V64.7441H504.317V64.4941V64.2441H502.307V64.4941ZM506.326 64.4941V64.7441H508.336V64.4941V64.2441H506.326V64.4941ZM510.345 64.4941V64.7441H512.354V64.4941V64.2441H510.345V64.4941ZM514.364 64.4941V64.7441H516.373V64.4941V64.2441H514.364V64.4941ZM518.382 64.4941V64.7441H520.392V64.4941V64.2441H518.382V64.4941ZM522.401 64.4941V64.7441H524.411V64.4941V64.2441H522.401V64.4941ZM526.42 64.4941V64.7441H528.429V64.4941V64.2441H526.42V64.4941ZM530.439 64.4941V64.7441H532.448V64.4941V64.2441H530.439V64.4941ZM534.457 64.4941V64.7441H536.467V64.4941V64.2441H534.457V64.4941ZM538.476 64.4941V64.7441H540.485V64.4941V64.2441H538.476V64.4941ZM542.495 64.4941V64.7441H543.5V64.4941V64.2441H542.495V64.4941Z" fill="white"/>
<path d="M917.956 185.787L943.91 207.581H931.429L905.475 185.787H917.956Z" fill="white" stroke="white" stroke-width="0.5"/>
<path d="M891.435 185.787L917.358 207.581H904.877L878.954 185.787H891.435Z" fill="white" stroke="white" stroke-width="0.5"/>
<path d="M864.883 185.787L890.837 207.581H878.355L852.401 185.787H864.883Z" fill="white" stroke="white" stroke-width="0.5"/>
<path d="M838.364 185.787L864.287 207.581H851.806L825.883 185.787H838.364Z" fill="white" stroke="white" stroke-width="0.5"/>
<path d="M811.853 185.787L837.775 207.581H825.294L799.34 185.787H811.853Z" fill="white" stroke="white" stroke-width="0.5"/>
<path d="M785.301 185.787L811.255 207.581H798.742L772.819 185.787H785.301Z" fill="white" stroke="white" stroke-width="0.5"/>
<path d="M758.779 185.787L784.702 207.581H772.221L746.267 185.787H758.779Z" fill="white" stroke="white" stroke-width="0.5"/>
<path d="M732.231 185.787L758.186 207.581H745.673L719.75 185.787H732.231Z" fill="white" stroke="white" stroke-width="0.5"/>
<path d="M705.712 185.787L731.636 207.581H719.154L693.231 185.787H705.712Z" fill="white" stroke="white" stroke-width="0.5"/>
<path d="M679.168 185.787L705.122 207.581H692.641L666.687 185.787H679.168Z" fill="white" stroke="white" stroke-width="0.5"/>
<path d="M944.349 185.787V196.146L932.026 185.787H944.349Z" fill="white" stroke="white" stroke-width="0.5"/>
</svg>
