<svg width="598" height="207" viewBox="0 0 598 207" fill="none" xmlns="http://www.w3.org/2000/svg">
<path d="M520.51 0.999857L0.500019 1L0.500014 40.8437L0.500007 107.578L54.25 139.289L108 171L597.5 171L597.5 62.7029L520.51 0.999857Z" stroke="white" stroke-width="0.5" stroke-dasharray="1 1"/>
<path d="M570.456 184.397L596.41 206.191H583.929L557.975 184.397H570.456Z" stroke="white" stroke-width="0.5"/>
<path d="M543.935 184.397L569.858 206.191H557.377L531.454 184.397H543.935Z" stroke="white" stroke-width="0.5"/>
<path d="M517.383 184.397L543.337 206.191H530.855L504.901 184.397H517.383Z" stroke="white" stroke-width="0.5"/>
<path d="M490.864 184.397L516.787 206.191H504.306L478.383 184.397H490.864Z" stroke="white" stroke-width="0.5"/>
<path d="M464.353 184.397L490.275 206.191H477.794L451.84 184.397H464.353Z" stroke="white" stroke-width="0.5"/>
<path d="M437.801 184.397L463.755 206.191H451.242L425.319 184.397H437.801Z" stroke="white" stroke-width="0.5"/>
<path d="M411.279 184.397L437.202 206.191H424.721L398.767 184.397H411.279Z" stroke="white" stroke-width="0.5"/>
<path d="M384.731 184.397L410.686 206.191H398.173L372.25 184.397H384.731Z" stroke="white" stroke-width="0.5"/>
<path d="M358.212 184.397L384.136 206.191H371.654L345.731 184.397H358.212Z" stroke="white" stroke-width="0.5"/>
<path d="M331.668 184.397L357.622 206.191H345.141L319.187 184.397H331.668Z" stroke="white" stroke-width="0.5"/>
<path d="M596.849 184.397V194.756L584.526 184.397H596.849Z" stroke="white" stroke-width="0.5"/>
</svg>
